<svg xmlns="http://www.w3.org/2000/svg" width="26" height="12" viewBox="0 0 26 12" fill="none">
  <path d="M20.067 11.5652L25.2432 6.59603C25.4077 6.43778 25.5 6.22336 25.5 5.99982C25.5 5.77628 25.4077 5.56187 25.2432 5.40362L20.067 0.434449C19.9522 0.32465 19.7968 0.263053 19.6348 0.263184C19.4727 0.263314 19.3174 0.32516 19.2028 0.435144C19.0883 0.545128 19.0238 0.69426 19.0237 0.849801C19.0236 1.00534 19.0877 1.15458 19.2021 1.26475L23.523 5.41271H1.11157C0.949373 5.41271 0.793817 5.47457 0.679125 5.58467C0.564433 5.69478 0.5 5.84411 0.5 5.99982C0.5 6.15553 0.564433 6.30487 0.679125 6.41497C0.793817 6.52508 0.949373 6.58693 1.11157 6.58693H23.523L19.2021 10.7349C19.0877 10.8451 19.0236 10.9943 19.0237 11.1498C19.0238 11.3054 19.0883 11.4545 19.2028 11.5645C19.3174 11.6745 19.4727 11.7363 19.6348 11.7365C19.7968 11.7366 19.9522 11.675 20.067 11.5652Z" fill="white"/>
</svg>